PathFileType	4	(X/Y/Z)	C:/Users/beibeiliu/ov580/test_trc\sequence.41_training_dense_left.trc
DataRate	CameraRate	NumFrames	NumMarkers	Units	OrigDataRate	OrigDataStartFrame	OrigNumFrames
120	120	24	19	mm	120	1	62
Frame#	Time	ThumbCMC			ThumbMCP			ThumbIP			ThumbTip			IndexMCP			IndexPIP			IndexTip			MiddleMCP			MiddlePIP			MiddleTip			RingMCP			RingPIP			RingTip			PinkyMCP			PinkyPIP			PinkyTip			BackHand1			BackHand2			BackHand3	
		X0	Y0	Z0	X1	Y1	Z1	X2	Y2	Z2	X3	Y3	Z3	X4	Y4	Z4	X5	Y5	Z5	X6	Y6	Z6	X7	Y7	Z7	X8	Y8	Z8	X9	Y9	Z9	X10	Y10	Z10	X11	Y11	Z11	X12	Y12	Z12	X13	Y13	Z13	X14	Y14	Z14	X15	Y15	Z15	X16	Y16	Z16	X17	Y17	Z17	X18	Y18	Z18	
0	0	-184.355	57.9348	143.113	-171.055	69.995	119.632	-167.029	88.9388	98.4372	-167.09	101.272	75.1164	-190.365	77.5152	73.0838	-162.251	66.2561	66.7752	-166.983	48.8011	99.5016	-193.08	58.6764	64.0472	-164.621	43.6097	67.0462	-173.989	34.7607	102.049	-194.775	41.5771	60.2642	-169.916	29.7549	67.9319	-178.051	24.6589	101.343	-219.696	23.1998	55.734	-210.949	23.7756	38.3547	-201.82	29.3071	13.812	-234.146	34.5715	103.125	-233.229	19.1607	136.096	-221.751	53.1172	130.747	
1	0.00833333	-157.575	50.8537	140.908	-138.622	56.1918	119.535	-130.987	65.397	96.8742	-121.264	75.8704	73.9733	-151.815	64.9458	70.6217	-132.232	39.5045	69.2267	-146.165	32.0234	100.573	-160.027	47.8513	63.0485	-142.538	25.1834	67.8876	-156.093	21.7987	104.695	-174.927	31.1064	60.1772	-153.14	13.7575	72.3534	-165.511	16.9917	108.214	-200.194	27.4368	61.1866	-188.945	20.9218	35.528	-182.341	18.6343	15.8028	-212.205	43.605	104.822	-216.459	37.7227	134.204	-190.816	61.5123	127.773	
2	0.0166667	-136.236	37.6752	145.884	-116.824	34.4776	126.495	-99.6003	41.5873	99.6423	-91.4418	43.7154	83.3682	-117.191	42.5641	73.8155	-111.29	15.6866	74.1803	-122.305	12.619	105.703	-139.121	30.3544	66.7986	-125.549	2.62848	75.5316	-136.808	7.04031	110.151	-151.631	20.8528	66.7136	-138.775	-5.49249	83.63	-151.474	4.26255	112.968	-179.833	19.7904	61.3159	-169.471	7.16084	41.852	-158.457	-1.22783	23.2307	-189.025	44.1752	103.815	-194.376	41.1005	133.839	-166.001	55.6475	129.744	
3	0.025	-116.913	25.3068	151.005	-100.531	15.2692	134.501	-81.754	15.8401	114.179	-68.3235	15.2586	99.6597	-97.3737	17.2637	83.5744	-90.0742	-10.6319	92.7943	-111.361	-5.9745	115.021	-116.113	9.48433	77.6625	-109.274	-21.0283	91.1351	-124.995	-9.03264	121.064	-129.185	-2.15827	75.3777	-124.066	-26.2078	95.3916	-133.271	-13.7545	121.724	-155.17	3.34108	70.8192	-144.505	-12.0821	52.2569	-135.973	-27.3726	34.5174	-164.879	31.6611	104.246	-179.588	32.5507	132.765	-143.774	44.3409	130.869	
4	0.0333333	-113.394	15.0359	161.974	-88.0816	6.20866	145.905	-66.7014	5.41624	131.617	-50.5685	4.05106	115.833	-80.8001	5.78353	98.6045	-73.0443	-22.8848	106.295	-94.0514	-15.0204	133.047	-93.6669	-11.0595	89.2369	-90.2004	-33.9569	111.188	-107.954	-20.9274	135.382	-115.21	-23.1577	87.7346	-105.422	-40.4632	113.79	-122.734	-21.9259	135.381	-138.139	-22.7977	77.5947	-122.327	-34.9282	68.7185	-110.596	-53.7333	53.6233	-152.642	15.3774	108.228	-163.924	20.9298	136.078	-134.082	30.5726	135.02	
5	0.0416667	-110.699	19.1185	163.231	-86.136	13.7766	154.001	-63.5393	15.5499	136.289	-44.7395	16.6195	124.964	-73.3939	9.34719	108.817	-63.3024	-18.0362	122.882	-84.8658	-9.60509	143.694	-83.9873	-15.1222	100.826	-72.863	-31.2218	124.136	-99.3069	-19.8322	146.086	-98.3052	-30.4039	100.467	-89.4699	-42.1696	129.682	-110.005	-26.575	147.01	-117.835	-35.2693	90.0675	-101.192	-46.193	86.2233	-82.7762	-64.5069	77.5439	-145.519	2.84837	115.71	-162.849	5.09884	138.638	-132.795	26.2443	138.708	
6	0.05	-116.7	30.9614	162.253	-90.0519	32.7002	153.426	-71.5186	34.8881	139.778	-54.2644	39.6387	124.235	-71.5019	16.7308	109.627	-54.9551	6.64107	128.389	-83.021	3.97004	147.571	-75.9243	-6.41852	107.799	-61.6904	-12.3934	132.037	-93.4408	-5.55498	154.53	-85.58	-19.3893	109.902	-73.7106	-27.03	138.552	-102.61	-12.2654	154.73	-99.872	-40.5104	101.596	-75.5971	-46.4931	99.7935	-55.6102	-55.1905	94.5372	-139.593	-7.37594	119.858	-161.324	-8.35983	141.128	-141.714	20.4522	135.316	
7	0.0583333	-131.074	37.8104	160.956	-105.179	46.5003	149.883	-85.8715	57.5551	128.891	-71.6572	64.987	116.513	-81.5816	33.6597	105.191	-62.9663	28.6317	129.259	-87.5253	18.5356	145.711	-78.1112	10.5094	106.924	-63.7812	8.73371	132.108	-97.5455	12.7636	152.631	-81.7552	-5.90206	110.433	-70.7492	-9.18196	140.486	-99.9223	-3.69439	154.327	-87.9072	-31.3867	103.296	-68.6023	-29.9685	104.022	-39.977	-32.1576	100.218	-138.744	-15.5029	119.017	-157.446	-14.8994	140.587	-148.679	20.4273	131.465	
8	0.0666667	-140.832	40.0349	153.281	-119.696	52.6743	138.948	-106.869	63.0683	119.923	-94.6032	74.9421	100.489	-100.556	42.8322	96.1282	-76.2079	42.5438	118.603	-100.948	34.3402	140.014	-92.9385	21.3763	97.4339	-73.6361	22.0083	125.685	-103.119	19.8251	145.302	-86.8589	3.62359	103.491	-75.2723	6.94887	132.048	-107.156	9.04579	146.886	-93.8787	-23.6476	99.8401	-71.3471	-16.478	97.1453	-42.6022	-11.253	95.5859	-140.756	-13.3147	116.48	-158.883	-19.2088	143.515	-156.381	15.6117	130.894	
9	0.075	-152.148	38.3778	149.912	-135.202	59.093	132.394	-127.103	71.6422	112.964	-117.398	77.6893	94.0804	-118.725	47.7402	86.9925	-92.4061	49.407	100.305	-108.069	37.255	129.796	-107.539	28.6107	87.0862	-87.0863	34.9187	110.425	-111.37	26.3578	135.621	-100.556	13.1825	92.8175	-84.1347	14.9957	118.845	-113.441	12.7208	138.567	-106.6	-13.6269	91.284	-78.3799	-4.83643	87.2856	-56.2532	9.45573	91.7036	-149.254	-16.3724	113.123	-162.582	-19.8249	138.082	-167.814	14.3751	129.133	
10	0.0833333	-162.316	40.6757	145.324	-147.824	58.0426	128.819	-141.262	71.7215	106.329	-135.927	83.3597	86.6337	-132.395	46.8382	81.129	-108.042	55.3169	93.9056	-120.496	40.2206	123.827	-120.111	30.3807	79.9355	-100.101	38.1456	99.8474	-119.852	25.7304	128.344	-111.724	9.5406	86.0759	-95.1795	20.1434	109.619	-123.365	15.8656	132.449	-117.091	-8.97961	85.5461	-89.8537	5.05601	82.6777	-73.8294	22.0241	99.9472	-157.6	-16.4305	111.361	-167.015	-19.4059	136.707	-176.447	10.995	126.738	
11	0.0916667	-170.638	37.1379	146.461	-161.403	61.1151	128.352	-157.403	74.161	105.081	-152.261	81.0639	85.2745	-147.693	49.3134	78.1221	-122.209	58.0853	91.2333	-128.09	44.5337	118.759	-136.978	30.6158	76.1803	-111.653	39.9998	95.0596	-132.888	29.145	125.527	-126.457	12.0307	81.3415	-108.499	26.6435	101.59	-128.73	17.487	127.94	-124.146	-0.617676	80.9382	-103.018	12.7489	86.9973	-97.4915	24.3612	119.212	-166.786	-16.7565	107.828	-173.912	-23.1631	137.503	-184.737	13.0357	125.78	
12	0.1	-179.057	36.0919	142.817	-167.954	55.2413	126.644	-167.179	73.8489	104.929	-165.277	83.4949	84.9743	-158.286	50.4006	77.3645	-133.702	61.7205	88.6443	-134.818	48.8304	117.481	-146.723	33.7053	75.0109	-121.937	42.2892	93.8538	-136.241	30.9248	123.416	-133.863	12.7882	78.5199	-118.368	30.1691	101.017	-137.527	19.1885	125.615	-130.372	-2.94265	84.1898	-110.964	14.747	96.5979	-121.878	19.2171	130.362	-173.262	-12.4859	108.111	-179.894	-21.8437	140.981	-191.146	9.15345	129.168	
13	0.108333	-182.291	36.2021	148.17	-173.192	57.3829	126.831	-172.002	71.4765	103.773	-168.035	80.1373	82.7952	-166.503	42.5801	76.8175	-140.159	58.52	79.9305	-137.395	50.5254	115.756	-151.065	31.2278	72.5143	-127.702	43.4711	89.8402	-138.108	34.5627	121.308	-139.395	14.8786	78.0761	-121.165	27.2061	96.204	-139.036	20.7983	124.472	-133.885	2.40578	85.9376	-117.802	15.2562	107.778	-135.841	13.5147	132.343	-176.576	-14.8011	109.394	-184.621	-23.5212	139.442	-197.889	5.98552	131.835	
14	0.116667	-182.884	36.8572	149.324	-169.814	55.4857	132.007	-165.638	70.2076	107.885	-159.143	73.1286	84.2131	-168.109	40.8785	73.651	-142.872	55.2556	70.767	-129.388	55.7847	101.859	-156.121	28.0283	72.2787	-128.334	42.9236	79.6259	-132.613	35.7337	118.276	-140.024	12.8649	78.803	-119.283	26.8182	96.668	-135.147	23.2716	123.653	-129.286	-1.67095	88.1662	-115.769	12.5866	107.938	-139.653	9.53571	136.112	-176.166	-20.0405	112.743	-182.944	-22.3523	141.018	-195.925	5.44439	130.581	
15	0.125	-177.183	38.796	148.105	-159.729	55.4118	128.012	-151.039	66.9398	101.221	-139.876	65.3238	83.0561	-170.585	40.5716	73.0675	-148.871	56.6123	58.0709	-117.222	61.7403	74.8717	-154.585	21.8482	68.6176	-124.791	42.1642	66.5089	-113.362	45.8657	98.8362	-135.427	9.9963	79.2678	-114.431	27.3114	93.5108	-127.554	25.1587	124.493	-124.364	-3.02356	91.0662	-113.669	15.0712	110.716	-136.833	15.0023	135.012	-172.07	-15.1315	111.241	-181.349	-21.2992	141.523	-194.413	9.44901	127.037	
16	0.133333	-175.263	40.7238	148.25	-153.487	56.024	123.03	-142.279	59.7728	100.722	-131.048	51.689	76.5435	-171.876	40.9704	74.1886	-152.656	56.1985	52.35	-127.961	67.1473	45.3089	-153.633	18.3502	69.0703	-125.491	33.7367	55.3454	-101.318	48.6926	74.7069	-132.715	14.8896	81.6022	-110.215	28.7814	99.0742	-128.702	27.6718	129.882	-122.258	0.809542	94.8536	-112.251	16.7577	114.281	-134.256	17.2932	137.142	-171.331	-15.7322	115.376	-181.283	-18.9684	139.955	-191.755	9.31228	126.038	
17	0.141667	-174.335	44.4481	147.219	-152.487	55.5198	127.229	-141.538	58.129	100.662	-131.838	48.4929	76.3792	-174.114	48.8939	76.9342	-158.653	61.5673	53.5145	-144.279	72.0473	36.6703	-152.911	22.5885	65.6484	-131.032	34.5026	51.844	-96.9289	48.9752	54.4889	-130.773	15.6721	82.9538	-110.684	30.1341	100.613	-131.05	32.8108	129.834	-126.518	2.72772	95.9666	-114.093	18.9492	120.068	-133.55	19.1457	140.837	-173.165	-10.6065	112.937	-180.53	-17.7418	140.445	-191.643	11.1607	128.945	
18	0.15	-175.413	47.2421	146.53	-155.466	56.2905	126.671	-144.764	57.9157	94.7265	-138.487	41.8068	77.8882	-175.08	53.3214	78.2354	-165.146	68.2983	57.8786	-154.042	76.2485	35.4527	-158.451	26.5768	67.427	-132.786	34.422	48.1742	-110.138	42.9911	38.9966	-136.445	17.7732	82.9613	-113.364	30.6725	104.162	-134.637	30.2338	133.567	-130.066	3.98672	95.2591	-119.225	20.976	118.843	-136.695	21.6884	141.109	-177.66	-6.43913	113.755	-185.975	-15.6695	142.046	-192.227	15.1271	130.863	
19	0.158333	-174.173	45.5493	147.421	-156.039	60.5833	124.339	-147.898	58.6744	96.5396	-141.312	42.7208	74.9835	-174.713	57.4483	73.35	-165.73	69.727	60.7295	-155.822	80.4107	37.2933	-159.757	29.434	63.4857	-141.566	39.3749	47.8865	-117.535	43.0275	32.7932	-135.454	19.0533	81.6858	-117.941	30.0217	101.111	-136.622	29.1314	132.688	-134.288	1.78101	92.1173	-119.643	15.5537	115.8	-138.912	16.3097	141.915	-182.825	-4.83881	108.786	-188.006	-11.459	143.083	-197.33	22.6635	131.924	
20	0.166667	-172.843	43.0964	149.665	-155.109	58.36	121.711	-147.905	57.0771	93.0235	-142.715	39.5017	72.3568	-175.745	56.992	77.8185	-162.603	71.0378	57.3588	-153.688	82.0003	36.0103	-162.559	28.4378	65.8682	-144.704	39.7098	48.2427	-119.772	43.7774	29.8516	-141.503	16.6967	81.2891	-118.528	26.1268	104.747	-136.908	26.9377	130.64	-138.555	1.0077	90.6118	-123.446	11.7332	113.883	-140.874	16.4438	139.437	-184.633	-3.44961	109.396	-191.098	-9.61613	138.115	-197.129	21.2708	127.756	
21	0.175	-173.923	45.1193	146.547	-154.38	55.6119	126.188	-148.452	57.0988	94.586	-145.712	42.5409	75.9338	-175.67	61.3067	77.1729	-164.137	74.8895	62.0448	-155.333	84.1635	41.1784	-166.638	35.9014	62.7536	-146.173	38.8998	45.6908	-125.55	43.7974	29.5793	-148.122	17.0252	79.4924	-123.416	24.7317	101.036	-138.463	22.7793	129.696	-143.67	3.33186	88.3734	-129.33	12.1693	112.329	-143.944	12.6574	136.842	-191.038	-0.656135	107.369	-196.701	-10.1034	139.912	-199.724	24.0767	130.473	
22	0.183333	-172.25	46.373	149.897	-156.337	56.4373	121.856	-151.254	59.6751	93.1346	-152.119	46.5507	68.7838	-179.267	69.0897	83.4461	-165.194	79.9983	64.5073	-155.404	88.1608	44.027	-173.722	42.3728	65.3082	-155.915	41.1007	47.6763	-130.854	45.5586	25.0571	-158.12	23.9838	78.5031	-129.319	21.9816	94.4376	-141.067	24.938	125.845	-153.077	3.89577	83.8324	-136.399	10.1145	108.458	-149.192	11.2786	135.108	-200.048	4.41686	106.817	-206.518	-4.34336	139.848	-204.396	32.254	133.06	
23	0.191667	-173.076	48.9435	148.609	-157.008	57.8538	123.042	-152.495	64.0566	98.6251	-160.066	56.3567	70.4993	-178.319	81.9599	84.6486	-164.542	89.6943	62.7194	-156.286	97.3813	46.261	-182.355	52.8496	62.8066	-165.35	58.6566	45.1875	-143.254	57.8269	22.3331	-166.675	28.567	72.4117	-138.812	25.6796	90.2732	-146.386	23.7552	121.528	-168.63	15.3691	79.0097	-147.013	13.9245	99.9201	-157.069	14.8523	127.175	-209.955	18.0252	110.052	-214.118	6.5223	137.093	-205.863	42.4828	133.326	
